<?xml version="1.0" ?><svg fill="none" height="96" viewBox="0 0 96 96" width="96" xmlns="http://www.w3.org/2000/svg"><path d="M40.9892 29.2818C40.5074 30.7 39.058 31.4899 37.7519 31.0461C36.4458 30.6023 35.7776 29.093 36.2595 27.6748C36.7413 26.2567 38.1907 25.4668 39.4968 25.9106C40.8029 26.3543 41.471 27.8637 40.9892 29.2818Z" fill="#AA208C"/><path d="M34.3655 30.3962C34.8158 29.5086 35.8502 29.0871 36.7926 29.4073L39.2815 30.2529C40.2239 30.5731 40.7874 31.5375 40.6037 32.5157L39.3599 39.1389C39.1353 40.335 37.9033 41.0549 36.7509 40.6634L32.4573 39.2046C31.3049 38.813 30.7665 37.4916 31.317 36.4061L34.3655 30.3962Z" fill="#F2EC5A"/><path clip-rule="evenodd" d="M37.436 27.5137L39.9249 28.3593C41.8097 28.9997 42.9368 30.9286 42.5694 32.885L41.3256 39.5081C40.8763 41.9005 38.4123 43.3403 36.1075 42.5572L31.8139 41.0983C29.5091 40.3153 28.4322 37.6724 29.5334 35.5015L32.5819 29.4916C33.4824 27.7163 35.5512 26.8733 37.436 27.5137ZM36.7926 29.4074C35.8502 29.0872 34.8158 29.5087 34.3655 30.3963L31.317 36.4062C30.7665 37.4917 31.3049 38.8131 32.4573 39.2047L36.7509 40.6635C37.9033 41.055 39.1353 40.3351 39.3599 39.139L40.6037 32.5158C40.7874 31.5376 40.2239 30.5732 39.2815 30.253L36.7926 29.4074Z" fill="#E654C5" fill-rule="evenodd"/><path clip-rule="evenodd" d="M31.1639 37.8104C31.3261 38.4364 31.7882 38.9772 32.4573 39.2045L36.7509 40.6633C37.9033 41.0549 39.1353 40.335 39.3599 39.1388L40.6037 32.5157C40.7874 31.5375 40.2239 30.573 39.2815 30.2528L39.1539 30.2095C39.2254 30.4861 39.2384 30.7815 39.1827 31.0782L37.9389 37.7013C37.7143 38.8975 36.4822 39.6174 35.3298 39.2259L31.1639 37.8104Z" fill="#DCD535" fill-rule="evenodd"/><path d="M42.3322 58.9197C39.0907 68.4601 28.3356 81.431 21.3153 79.0457C14.295 76.6605 13.668 59.8223 16.9095 50.282C20.151 40.7416 28.6913 34.2893 35.7116 36.6746C42.7319 39.0599 45.5737 49.3794 42.3322 58.9197Z" fill="#46ECBA"/><path clip-rule="evenodd" d="M28.004 80.0355C25.7011 81.1943 23.1297 81.7745 20.6719 80.9394C18.214 80.1043 16.5283 78.0777 15.4081 75.7558C14.2808 73.4193 13.6057 70.5507 13.2763 67.5664C12.6187 61.6084 13.2907 54.716 15.0158 49.6385C16.7579 44.5113 19.9364 40.1624 23.7104 37.3936C27.4706 34.6349 32.0381 33.3142 36.355 34.7809C40.6718 36.2476 43.4893 40.0775 44.7906 44.5559C46.0967 49.0508 45.9679 54.4359 44.2259 59.5631C42.5007 64.6406 38.8346 70.5157 34.6836 74.8399C32.6043 77.0058 30.3214 78.8694 28.004 80.0355ZM21.3153 79.0457C28.3356 81.431 39.0907 68.4601 42.3322 58.9197C45.5737 49.3793 42.7319 39.0598 35.7116 36.6746C28.6913 34.2893 20.151 40.7416 16.9095 50.2819C13.668 59.8223 14.295 76.6605 21.3153 79.0457Z" fill="#19B89B" fill-rule="evenodd"/><path clip-rule="evenodd" d="M21.6952 79.1591C28.7176 80.9684 39.1486 68.2896 42.3321 58.9198C45.5736 49.3794 42.7318 39.0599 35.7115 36.6747C34.2752 36.1866 32.7753 36.0686 31.2701 36.2712C31.8042 36.3532 32.3328 36.4814 32.853 36.6582C39.8732 39.0434 42.7151 49.3629 39.4736 58.9033C36.6998 67.067 28.4244 77.7426 21.6952 79.1591Z" fill="#35DFAC" fill-rule="evenodd"/><path d="M30.1175 57.0418C29.2512 61.6683 25.1381 68.3794 21.7337 67.7419C18.3293 67.1045 16.9227 59.36 17.789 54.7335C18.6552 50.1069 22.1765 46.557 25.5809 47.1944C28.9853 47.8319 30.9837 52.4152 30.1175 57.0418Z" fill="#6AF9CE"/><path clip-rule="evenodd" d="M20.8632 53.3269C21.6685 53.5213 22.1637 54.3317 21.9693 55.137C21.7042 56.2353 21.274 59.1543 21.6994 61.7205C21.8349 62.5377 21.2822 63.3101 20.4649 63.4456C19.6476 63.5811 18.8753 63.0284 18.7398 62.2111C18.226 59.1116 18.7325 55.7613 19.0531 54.433C19.2475 53.6277 20.0579 53.1325 20.8632 53.3269Z" fill="white" fill-rule="evenodd"/><path d="M37.489 44.8001C37.3384 45.2433 36.849 45.4777 36.396 45.3238C35.9429 45.1698 35.6976 44.6858 35.8482 44.2426C35.9988 43.7994 36.4881 43.565 36.9412 43.7189C37.3943 43.8729 37.6396 44.3569 37.489 44.8001Z" fill="#1BCA96"/><path d="M42.6002 47.7283C42.4644 48.1281 42.0228 48.3396 41.6141 48.2007C41.2053 48.0618 40.984 47.6251 41.1199 47.2253C41.2557 46.8255 41.6972 46.6139 42.106 46.7528C42.5148 46.8917 42.736 47.3284 42.6002 47.7283Z" fill="#1BCA96"/><path d="M39.6432 47.7379C39.5073 48.1377 39.0658 48.3493 38.6571 48.2104C38.2483 48.0715 38.027 47.6348 38.1629 47.2349C38.2987 46.8351 38.7402 46.6236 39.149 46.7625C39.5578 46.9014 39.779 47.3381 39.6432 47.7379Z" fill="#1BCA96"/><path d="M43.0063 53.2069C42.8704 53.6067 42.4289 53.8183 42.0201 53.6794C41.6114 53.5405 41.3901 53.1038 41.526 52.7039C41.6618 52.3041 42.1033 52.0926 42.5121 52.2315C42.9209 52.3704 43.1421 52.8071 43.0063 53.2069Z" fill="#1BCA96"/><path d="M39.6277 42.9238C39.4918 43.3236 39.0503 43.5352 38.6415 43.3963C38.2327 43.2574 38.0115 42.8207 38.1473 42.4209C38.2832 42.021 38.7247 41.8095 39.1335 41.9484C39.5422 42.0873 39.7635 42.524 39.6277 42.9238Z" fill="#1BCA96"/><path d="M38.1742 40.0905C38.0767 40.3772 37.7601 40.5289 37.467 40.4293C37.1739 40.3297 37.0152 40.0166 37.1126 39.7298C37.21 39.4431 37.5266 39.2914 37.8198 39.391C38.1129 39.4906 38.2716 39.8038 38.1742 40.0905Z" fill="#1BCA96"/><path d="M41.4025 45.5455C41.1988 46.1451 40.5366 46.4623 39.9236 46.2541C39.3105 46.0458 38.9787 45.3908 39.1825 44.7912C39.3862 44.1915 40.0483 43.8743 40.6614 44.0826C41.2744 44.2909 41.6062 44.9458 41.4025 45.5455Z" fill="#1BCA96"/><path d="M41.7005 50.9031C41.4968 51.5028 40.8346 51.82 40.2216 51.6117C39.6085 51.4034 39.2767 50.7485 39.4805 50.1488C39.6842 49.5492 40.3463 49.232 40.9594 49.4403C41.5724 49.6486 41.9043 50.3035 41.7005 50.9031Z" fill="#1BCA96"/><path d="M62.5551 29.7932C62.7742 31.1529 61.9365 32.4188 60.6842 32.6205C59.4319 32.8223 58.2391 31.8835 58.0201 30.5237C57.801 29.164 58.6387 27.8981 59.891 27.6964C61.1433 27.4946 62.3361 28.4334 62.5551 29.7932Z" fill="#066060"/><path d="M57.6553 33.6901C57.6375 32.695 58.3543 31.8382 59.3369 31.6799L61.4479 31.3399C62.4305 31.1816 63.38 31.7699 63.6757 32.7203L65.42 38.3271C65.7815 39.4893 65.0299 40.7022 63.8283 40.8958L60.0777 41.5C58.8761 41.6935 57.7816 40.778 57.7599 39.5611L57.6553 33.6901Z" fill="#DCBA41"/><path clip-rule="evenodd" d="M59.0188 29.7053L61.1298 29.3652C63.095 29.0487 64.994 30.2253 65.5854 32.1261L67.3297 37.7329C68.0528 40.0572 66.5496 42.4831 64.1464 42.8702L60.3958 43.4744C57.9925 43.8616 55.8036 42.0304 55.7602 39.5966L55.6556 33.7257C55.6201 31.7354 57.0535 30.0219 59.0188 29.7053ZM59.3369 31.6798C58.3543 31.8381 57.6376 32.6949 57.6553 33.69L57.7599 39.561C57.7816 40.7779 58.8761 41.6935 60.0777 41.4999L63.8283 40.8957C65.0299 40.7021 65.7815 39.4892 65.42 38.327L63.6757 32.7202C63.38 31.7698 62.4305 31.1815 61.4479 31.3398L59.3369 31.6798Z" fill="#078181" fill-rule="evenodd"/><path clip-rule="evenodd" d="M58.3433 40.9376C58.779 41.3739 59.4119 41.6072 60.0777 41.5L63.8283 40.8958C65.0299 40.7022 65.7815 39.4892 65.42 38.3271L63.6757 32.7203C63.38 31.7699 62.4305 31.1815 61.4479 31.3398L61.4088 31.3461C61.631 31.5687 61.8031 31.8462 61.9021 32.1642L63.6464 37.771C64.0079 38.9332 63.2564 40.1461 62.0548 40.3397L58.3433 40.9376Z" fill="#B49528" fill-rule="evenodd"/><path d="M76.4066 53.2975C77.8801 62.4452 74.7255 77.6152 67.9942 78.6996C61.2629 79.7839 53.5039 66.3719 52.0303 57.2243C50.5567 48.0766 54.7183 39.1569 61.4496 38.0725C68.1809 36.9882 74.933 44.1498 76.4066 53.2975Z" fill="#E946EC"/><path clip-rule="evenodd" d="M73.9864 76.7173C72.6007 78.6693 70.7279 80.2851 68.3122 80.6742C65.8966 81.0633 63.6111 80.1174 61.6825 78.6993C59.7409 77.2716 57.9453 75.2157 56.3867 72.9236C53.2756 68.3483 50.8442 62.4367 50.0558 57.5424C49.259 52.5963 49.9727 47.6604 51.8627 43.7537C53.7453 39.8625 56.9247 36.7757 61.1315 36.0981C65.3383 35.4204 69.3262 37.3526 72.3355 40.4558C75.3567 43.5713 77.5843 48.0334 78.3811 52.9795C79.1695 57.8738 78.7175 64.2499 77.2006 69.5707C76.4406 72.2363 75.3815 74.7521 73.9864 76.7173ZM67.9942 78.6997C74.7255 77.6153 77.8802 62.4453 76.4066 53.2976C74.933 44.1499 68.1809 36.9883 61.4496 38.0726C54.7183 39.1569 50.5567 48.0767 52.0303 57.2244C53.5039 66.372 61.2629 79.784 67.9942 78.6997Z" fill="#AA0AAD" fill-rule="evenodd"/><path clip-rule="evenodd" d="M68.3517 78.6282C74.8367 77.075 77.8538 62.2818 76.4065 53.2977C74.9329 44.15 68.1809 36.9883 61.4496 38.0727C60.0724 38.2945 58.8028 38.8443 57.667 39.657C58.1363 39.4937 58.6209 39.3703 59.1197 39.29C65.851 38.2056 72.6031 45.3673 74.0767 54.515C75.3377 62.3427 73.2097 74.5801 68.3517 78.6282Z" fill="#CC38CF" fill-rule="evenodd"/><path d="M65.6729 57.0306C66.9609 61.1628 66.5082 68.3868 63.4674 69.3346C60.4267 70.2824 55.9495 64.5951 54.6615 60.4628C53.3735 56.3306 54.7063 51.93 57.747 50.9822C60.7877 50.0344 64.3849 52.8983 65.6729 57.0306Z" fill="#FB6AFE"/><path clip-rule="evenodd" d="M56.5241 57.8795C57.3267 57.6743 58.1437 58.1585 58.3489 58.9611C58.604 59.9584 59.5058 62.4988 60.9431 64.3835C61.4454 65.0422 61.3187 65.9835 60.6599 66.4858C60.0012 66.9882 59.06 66.8614 58.5576 66.2027C56.7925 63.8881 55.7562 60.9309 55.4425 59.7044C55.2372 58.9018 55.7215 58.0848 56.5241 57.8795Z" fill="white" fill-rule="evenodd"/><path d="M66.3918 43.9098C66.4602 44.3346 66.1636 44.7357 65.7293 44.8056C65.2949 44.8756 64.8874 44.5879 64.819 44.1631C64.7505 43.7383 65.0471 43.3372 65.4815 43.2672C65.9158 43.1973 66.3233 43.4849 66.3918 43.9098Z" fill="#981CC4"/><path d="M71.8056 44.0886C71.8674 44.4718 71.5997 44.8337 71.2079 44.8968C70.8161 44.9599 70.4484 44.7004 70.3866 44.3171C70.3249 43.9339 70.5925 43.572 70.9843 43.5089C71.3762 43.4458 71.7439 43.7053 71.8056 44.0886Z" fill="#981CC4"/><path d="M69.407 45.3694C69.4688 45.7527 69.2012 46.1146 68.8093 46.1777C68.4175 46.2408 68.0498 45.9813 67.988 45.598C67.9263 45.2148 68.1939 44.8529 68.5857 44.7898C68.9776 44.7266 69.3453 44.9862 69.407 45.3694Z" fill="#981CC4"/><path d="M74.4943 48.3654C74.5561 48.7487 74.2885 49.1105 73.8966 49.1737C73.5048 49.2368 73.1371 48.9773 73.0753 48.594C73.0136 48.2107 73.2812 47.8489 73.673 47.7857C74.0649 47.7226 74.4326 47.9821 74.4943 48.3654Z" fill="#981CC4"/><path d="M67.3213 41.464C67.383 41.8473 67.1154 42.2092 66.7235 42.2723C66.3317 42.3354 65.964 42.0759 65.9022 41.6926C65.8405 41.3094 66.1081 40.9475 66.5 40.8844C66.8918 40.8212 67.2595 41.0808 67.3213 41.464Z" fill="#981CC4"/><path d="M64.921 39.788C64.9653 40.0628 64.7734 40.3223 64.4924 40.3676C64.2114 40.4128 63.9477 40.2267 63.9034 39.9519C63.8591 39.677 64.0511 39.4175 64.332 39.3723C64.613 39.327 64.8767 39.5131 64.921 39.788Z" fill="#981CC4"/><path d="M69.8915 42.8298C69.9841 43.4046 69.5827 43.9473 68.9951 44.0419C68.4074 44.1366 67.856 43.7474 67.7634 43.1726C67.6708 42.5978 68.0721 42.0551 68.6598 41.9604C69.2474 41.8658 69.7989 42.255 69.8915 42.8298Z" fill="#981CC4"/><path d="M72.4413 47.0555C72.5338 47.6303 72.1325 48.173 71.5449 48.2677C70.9572 48.3623 70.4057 47.9731 70.3132 47.3983C70.2206 46.8235 70.6219 46.2808 71.2096 46.1861C71.7972 46.0915 72.3487 46.4807 72.4413 47.0555Z" fill="#981CC4"/><path clip-rule="evenodd" d="M9.25325 11.3349C9.62056 10.9225 10.2527 10.8859 10.6651 11.2532C21.1171 20.5621 51.0446 35.4908 86.6024 20.0825C87.1092 19.8629 87.698 20.0957 87.9176 20.6024C88.1372 21.1092 87.9044 21.698 87.3976 21.9176C50.9554 37.7092 20.2162 22.4379 9.33492 12.7468C8.9225 12.3795 8.88593 11.7473 9.25325 11.3349Z" fill="#45A2D7" fill-rule="evenodd"/><path clip-rule="evenodd" d="M9.25325 11.3349C9.62056 10.9225 10.2527 10.8859 10.6651 11.2532C16.5028 16.4524 28.4816 23.4495 44.1551 25.8713C44.7009 25.9557 45.075 26.4665 44.9907 27.0123C44.9063 27.5581 44.3955 27.9322 43.8497 27.8479C27.7861 25.3658 15.4536 18.1962 9.33492 12.7468C8.9225 12.3795 8.88593 11.7473 9.25325 11.3349Z" fill="#69C2F4" fill-rule="evenodd"/></svg>